<svg xmlns="http://www.w3.org/2000/svg" version="1.1" xmlns:xlink="http://www.w3.org/1999/xlink" xmlns:svgjs="http://svgjs.com/svgjs" width="1440" height="560" preserveAspectRatio="none" viewBox="0 0 1440 560"><g mask="url(&quot;#SvgjsMask1000&quot;)" fill="none"><rect width="1440" height="560" x="0" y="0" fill="#0e2a47"></rect><path d="M116.91 297.32L181.87 334.82L181.87 409.82L116.91 447.32L51.96 409.82L51.96 334.82zM181.87 409.82L246.82 447.32L246.82 522.32L181.87 559.82L116.91 522.32L116.91 447.32zM376.73 297.32L441.68 334.82L441.68 409.82L376.73 447.32L311.77 409.82L311.77 334.82zM506.64 522.32L571.59 559.82L571.59 634.82L506.64 672.32L441.68 634.82L441.68 559.82zM571.59 -40.18L636.54 -2.68L636.54 72.32L571.59 109.82L506.64 72.32L506.64 -2.68zM571.59 184.82L636.54 222.32L636.54 297.32L571.59 334.82L506.64 297.32L506.64 222.32zM896.36 522.32L961.31 559.82L961.31 634.82L896.36 672.32L831.4 634.82L831.4 559.82zM1091.22 409.82L1156.17 447.32L1156.17 522.32L1091.22 559.82L1026.27 522.32L1026.27 447.32zM1415.99 297.32L1480.94 334.82L1480.94 409.82L1415.99 447.32L1351.04 409.82L1351.04 334.82z" stroke="#03305d" stroke-width="2"></path><path d="M109.41 297.32 a7.5 7.5 0 1 0 15 0 a7.5 7.5 0 1 0 -15 0zM174.37 334.82 a7.5 7.5 0 1 0 15 0 a7.5 7.5 0 1 0 -15 0zM174.37 409.82 a7.5 7.5 0 1 0 15 0 a7.5 7.5 0 1 0 -15 0zM109.41 447.32 a7.5 7.5 0 1 0 15 0 a7.5 7.5 0 1 0 -15 0zM44.46 409.82 a7.5 7.5 0 1 0 15 0 a7.5 7.5 0 1 0 -15 0zM44.46 334.82 a7.5 7.5 0 1 0 15 0 a7.5 7.5 0 1 0 -15 0zM239.32 447.32 a7.5 7.5 0 1 0 15 0 a7.5 7.5 0 1 0 -15 0zM239.32 522.32 a7.5 7.5 0 1 0 15 0 a7.5 7.5 0 1 0 -15 0zM174.37 559.82 a7.5 7.5 0 1 0 15 0 a7.5 7.5 0 1 0 -15 0zM109.41 522.32 a7.5 7.5 0 1 0 15 0 a7.5 7.5 0 1 0 -15 0zM369.23 297.32 a7.5 7.5 0 1 0 15 0 a7.5 7.5 0 1 0 -15 0zM434.18 334.82 a7.5 7.5 0 1 0 15 0 a7.5 7.5 0 1 0 -15 0zM434.18 409.82 a7.5 7.5 0 1 0 15 0 a7.5 7.5 0 1 0 -15 0zM369.23 447.32 a7.5 7.5 0 1 0 15 0 a7.5 7.5 0 1 0 -15 0zM304.27 409.82 a7.5 7.5 0 1 0 15 0 a7.5 7.5 0 1 0 -15 0zM304.27 334.82 a7.5 7.5 0 1 0 15 0 a7.5 7.5 0 1 0 -15 0zM499.14 522.32 a7.5 7.5 0 1 0 15 0 a7.5 7.5 0 1 0 -15 0zM564.09 559.82 a7.5 7.5 0 1 0 15 0 a7.5 7.5 0 1 0 -15 0zM564.09 634.82 a7.5 7.5 0 1 0 15 0 a7.5 7.5 0 1 0 -15 0zM499.14 672.32 a7.5 7.5 0 1 0 15 0 a7.5 7.5 0 1 0 -15 0zM434.18 634.82 a7.5 7.5 0 1 0 15 0 a7.5 7.5 0 1 0 -15 0zM434.18 559.82 a7.5 7.5 0 1 0 15 0 a7.5 7.5 0 1 0 -15 0zM564.09 -40.18 a7.5 7.5 0 1 0 15 0 a7.5 7.5 0 1 0 -15 0zM629.04 -2.68 a7.5 7.5 0 1 0 15 0 a7.5 7.5 0 1 0 -15 0zM629.04 72.32 a7.5 7.5 0 1 0 15 0 a7.5 7.5 0 1 0 -15 0zM564.09 109.82 a7.5 7.5 0 1 0 15 0 a7.5 7.5 0 1 0 -15 0zM499.14 72.32 a7.5 7.5 0 1 0 15 0 a7.5 7.5 0 1 0 -15 0zM499.14 -2.68 a7.5 7.5 0 1 0 15 0 a7.5 7.5 0 1 0 -15 0zM564.09 184.82 a7.5 7.5 0 1 0 15 0 a7.5 7.5 0 1 0 -15 0zM629.04 222.32 a7.5 7.5 0 1 0 15 0 a7.5 7.5 0 1 0 -15 0zM629.04 297.32 a7.5 7.5 0 1 0 15 0 a7.5 7.5 0 1 0 -15 0zM564.09 334.82 a7.5 7.5 0 1 0 15 0 a7.5 7.5 0 1 0 -15 0zM499.14 297.32 a7.5 7.5 0 1 0 15 0 a7.5 7.5 0 1 0 -15 0zM499.14 222.32 a7.5 7.5 0 1 0 15 0 a7.5 7.5 0 1 0 -15 0zM888.86 522.32 a7.5 7.5 0 1 0 15 0 a7.5 7.5 0 1 0 -15 0zM953.81 559.82 a7.5 7.5 0 1 0 15 0 a7.5 7.5 0 1 0 -15 0zM953.81 634.82 a7.5 7.5 0 1 0 15 0 a7.5 7.5 0 1 0 -15 0zM888.86 672.32 a7.5 7.5 0 1 0 15 0 a7.5 7.5 0 1 0 -15 0zM823.9 634.82 a7.5 7.5 0 1 0 15 0 a7.5 7.5 0 1 0 -15 0zM823.9 559.82 a7.5 7.5 0 1 0 15 0 a7.5 7.5 0 1 0 -15 0zM1083.72 409.82 a7.5 7.5 0 1 0 15 0 a7.5 7.5 0 1 0 -15 0zM1148.67 447.32 a7.5 7.5 0 1 0 15 0 a7.5 7.5 0 1 0 -15 0zM1148.67 522.32 a7.5 7.5 0 1 0 15 0 a7.5 7.5 0 1 0 -15 0zM1083.72 559.82 a7.5 7.5 0 1 0 15 0 a7.5 7.5 0 1 0 -15 0zM1018.77 522.32 a7.5 7.5 0 1 0 15 0 a7.5 7.5 0 1 0 -15 0zM1018.77 447.32 a7.5 7.5 0 1 0 15 0 a7.5 7.5 0 1 0 -15 0zM1408.49 297.32 a7.5 7.5 0 1 0 15 0 a7.5 7.5 0 1 0 -15 0zM1473.44 334.82 a7.5 7.5 0 1 0 15 0 a7.5 7.5 0 1 0 -15 0zM1473.44 409.82 a7.5 7.5 0 1 0 15 0 a7.5 7.5 0 1 0 -15 0zM1408.49 447.32 a7.5 7.5 0 1 0 15 0 a7.5 7.5 0 1 0 -15 0zM1343.54 409.82 a7.5 7.5 0 1 0 15 0 a7.5 7.5 0 1 0 -15 0zM1343.54 334.82 a7.5 7.5 0 1 0 15 0 a7.5 7.5 0 1 0 -15 0z" fill="#03305d"></path><path d="M46.85 -35.16L90.15 -10.16L90.15 39.84L46.85 64.84L3.55 39.84L3.55 -10.16zM90.15 189.84L133.46 214.84L133.46 264.84L90.15 289.84L46.85 264.84L46.85 214.84zM46.85 264.84L90.15 289.84L90.15 339.84L46.85 364.84L3.55 339.84L3.55 289.84zM90.15 339.84L133.46 364.84L133.46 414.84L90.15 439.84L46.85 414.84L46.85 364.84zM133.46 114.84L176.76 139.84L176.76 189.84L133.46 214.84L90.15 189.84L90.15 139.84zM176.76 189.84L220.06 214.84L220.06 264.84L176.76 289.84L133.46 264.84L133.46 214.84zM133.46 414.84L176.76 439.84L176.76 489.84L133.46 514.84L90.15 489.84L90.15 439.84zM220.06 -35.16L263.36 -10.16L263.36 39.84L220.06 64.84L176.76 39.84L176.76 -10.16zM220.06 114.84L263.36 139.84L263.36 189.84L220.06 214.84L176.76 189.84L176.76 139.84zM349.97 189.84L393.27 214.84L393.27 264.84L349.97 289.84L306.67 264.84L306.67 214.84zM306.67 264.84L349.97 289.84L349.97 339.84L306.67 364.84L263.36 339.84L263.36 289.84zM393.27 -35.16L436.57 -10.16L436.57 39.84L393.27 64.84L349.97 39.84L349.97 -10.16zM393.27 114.84L436.57 139.84L436.57 189.84L393.27 214.84L349.97 189.84L349.97 139.84zM436.57 189.84L479.88 214.84L479.88 264.84L436.57 289.84L393.27 264.84L393.27 214.84zM393.27 264.84L436.57 289.84L436.57 339.84L393.27 364.84L349.97 339.84L349.97 289.84zM393.27 414.84L436.57 439.84L436.57 489.84L393.27 514.84L349.97 489.84L349.97 439.84zM523.18 189.84L566.48 214.84L566.48 264.84L523.18 289.84L479.88 264.84L479.88 214.84zM609.78 39.84L653.09 64.84L653.09 114.84L609.78 139.84L566.48 114.84L566.48 64.84zM609.78 189.84L653.09 214.84L653.09 264.84L609.78 289.84L566.48 264.84L566.48 214.84zM566.48 264.84L609.78 289.84L609.78 339.84L566.48 364.84L523.18 339.84L523.18 289.84zM566.48 414.84L609.78 439.84L609.78 489.84L566.48 514.84L523.18 489.84L523.18 439.84zM653.09 264.84L696.39 289.84L696.39 339.84L653.09 364.84L609.78 339.84L609.78 289.84zM696.39 339.84L739.69 364.84L739.69 414.84L696.39 439.84L653.09 414.84L653.09 364.84zM653.09 414.84L696.39 439.84L696.39 489.84L653.09 514.84L609.78 489.84L609.78 439.84zM739.69 -35.16L782.99 -10.16L782.99 39.84L739.69 64.84L696.39 39.84L696.39 -10.16zM739.69 264.84L782.99 289.84L782.99 339.84L739.69 364.84L696.39 339.84L696.39 289.84zM869.6 39.84L912.9 64.84L912.9 114.84L869.6 139.84L826.3 114.84L826.3 64.84zM826.3 264.84L869.6 289.84L869.6 339.84L826.3 364.84L782.99 339.84L782.99 289.84zM912.9 -35.16L956.2 -10.16L956.2 39.84L912.9 64.84L869.6 39.84L869.6 -10.16zM912.9 264.84L956.2 289.84L956.2 339.84L912.9 364.84L869.6 339.84L869.6 289.84zM912.9 414.84L956.2 439.84L956.2 489.84L912.9 514.84L869.6 489.84L869.6 439.84zM956.2 489.84L999.51 514.84L999.51 564.84L956.2 589.84L912.9 564.84L912.9 514.84zM1042.81 39.84L1086.11 64.84L1086.11 114.84L1042.81 139.84L999.51 114.84L999.51 64.84zM1042.81 339.84L1086.11 364.84L1086.11 414.84L1042.81 439.84L999.51 414.84L999.51 364.84zM999.51 414.84L1042.81 439.84L1042.81 489.84L999.51 514.84L956.2 489.84L956.2 439.84zM1086.11 114.84L1129.41 139.84L1129.41 189.84L1086.11 214.84L1042.81 189.84L1042.81 139.84zM1086.11 264.84L1129.41 289.84L1129.41 339.84L1086.11 364.84L1042.81 339.84L1042.81 289.84zM1129.41 489.84L1172.71 514.84L1172.71 564.84L1129.41 589.84L1086.11 564.84L1086.11 514.84zM1172.71 -35.16L1216.02 -10.16L1216.02 39.84L1172.71 64.84L1129.41 39.84L1129.41 -10.16zM1216.02 39.84L1259.32 64.84L1259.32 114.84L1216.02 139.84L1172.71 114.84L1172.71 64.84zM1216.02 339.84L1259.32 364.84L1259.32 414.84L1216.02 439.84L1172.71 414.84L1172.71 364.84zM1259.32 414.84L1302.62 439.84L1302.62 489.84L1259.32 514.84L1216.02 489.84L1216.02 439.84zM1302.62 489.84L1345.92 514.84L1345.92 564.84L1302.62 589.84L1259.32 564.84L1259.32 514.84zM1345.92 -35.16L1389.23 -10.16L1389.23 39.84L1345.92 64.84L1302.62 39.84L1302.62 -10.16zM1345.92 114.84L1389.23 139.84L1389.23 189.84L1345.92 214.84L1302.62 189.84L1302.62 139.84zM1389.23 189.84L1432.53 214.84L1432.53 264.84L1389.23 289.84L1345.92 264.84L1345.92 214.84zM1389.23 339.84L1432.53 364.84L1432.53 414.84L1389.23 439.84L1345.92 414.84L1345.92 364.84zM1432.53 -35.16L1475.83 -10.16L1475.83 39.84L1432.53 64.84L1389.23 39.84L1389.23 -10.16zM1432.53 114.84L1475.83 139.84L1475.83 189.84L1432.53 214.84L1389.23 189.84L1389.23 139.84zM1432.53 264.84L1475.83 289.84L1475.83 339.84L1432.53 364.84L1389.23 339.84L1389.23 289.84zM1475.83 339.84L1519.13 364.84L1519.13 414.84L1475.83 439.84L1432.53 414.84L1432.53 364.84zM1475.83 489.84L1519.13 514.84L1519.13 564.84L1475.83 589.84L1432.53 564.84L1432.53 514.84z" stroke="rgba(6, 80, 156, 0.93)" stroke-width="2"></path></g><defs><mask id="SvgjsMask1000"><rect width="1440" height="560" fill="#ffffff"></rect></mask></defs></svg>