<svg xmlns="http://www.w3.org/2000/svg" version="1.1" xmlns:xlink="http://www.w3.org/1999/xlink" xmlns:svgjs="http://svgjs.com/svgjs" width="1440" height="800" preserveAspectRatio="none" viewBox="0 0 1440 800"><g mask="url(&quot;#SvgjsMask1785&quot;)" fill="none"><rect width="1440" height="800" x="0" y="0" fill="url(#SvgjsLinearGradient1786)"></rect><path d="M1440 0L1418.23 0L1440 162.34z" fill="rgba(255, 255, 255, .1)"></path><path d="M1418.23 0L1440 162.34L1440 419.91999999999996L780.66 0z" fill="rgba(255, 255, 255, .075)"></path><path d="M780.66 0L1440 419.91999999999996L1440 434.94999999999993L519.43 0z" fill="rgba(255, 255, 255, .05)"></path><path d="M519.43 0L1440 434.94999999999993L1440 677.8499999999999L269.26 0z" fill="rgba(255, 255, 255, .025)"></path><path d="M0 800L187.27 800L0 726.31z" fill="rgba(0, 0, 0, .1)"></path><path d="M0 726.31L187.27 800L603.28 800L0 582.9z" fill="rgba(0, 0, 0, .075)"></path><path d="M0 582.9L603.28 800L1085.7 800L0 291.73999999999995z" fill="rgba(0, 0, 0, .05)"></path><path d="M0 291.74L1085.7 800L1227.42 800L0 110.55000000000001z" fill="rgba(0, 0, 0, .025)"></path></g><defs><mask id="SvgjsMask1785"><rect width="1440" height="800" fill="#ffffff"></rect></mask><linearGradient x1="11.11%" y1="-20%" x2="88.89%" y2="120%" gradientUnits="userSpaceOnUse" id="SvgjsLinearGradient1786"><stop stop-color="#0e2a47" offset="0"></stop><stop stop-color="rgba(0, 111, 158, 1)" offset="1"></stop></linearGradient></defs></svg>