<svg xmlns="http://www.w3.org/2000/svg" version="1.1" xmlns:xlink="http://www.w3.org/1999/xlink" xmlns:svgjs="http://svgjs.com/svgjs" width="1440" height="560" preserveAspectRatio="none" viewBox="0 0 1440 560"><g mask="url(&quot;#SvgjsMask1000&quot;)" fill="none"><rect width="1440" height="560" x="0" y="0" fill="#0e2a47"></rect><path d="M0,662.042C122.661,657.077,173.211,496.587,276.433,430.138C379.535,363.766,547.423,384.741,601.617,274.749C655.52,165.346,566.302,39.399,525.597,-75.569C492.2,-169.898,457.759,-264.738,385.94,-334.419C317.621,-400.704,223.788,-424.645,133.804,-455.695C39.322,-488.297,-52.95,-525.253,-152.777,-520.31C-271.954,-514.409,-400.143,-503.029,-490.239,-424.795C-584.363,-343.063,-646.706,-217.406,-645.154,-92.759C-643.659,27.281,-547.519,119.489,-482.206,220.216C-426.452,306.2,-366.756,383.884,-291.199,453.114C-201.296,535.489,-121.835,666.973,0,662.042" fill="#0b2239"></path><path d="M1440 960.438C1512.752 948.9010000000001 1567.272 893.116 1623.496 845.5260000000001 1673.045 803.586 1721.1 759.733 1747.2930000000001 700.336 1773.271 641.425 1776.272 576.615 1770.3519999999999 512.503 1764.179 445.657 1746.107 381.98199999999997 1712.527 323.85400000000004 1673.15 255.69 1637.314 166.90699999999998 1560.573 149.36700000000002 1483.325 131.711 1420.426 212.71300000000002 1346.068 240.09699999999998 1278.321 265.047 1198.22 256.016 1143.406 303 1085.3600000000001 352.755 1053.051 427.15999999999997 1039.9560000000001 502.48199999999997 1026.629 579.142 1038.628 657.783 1069.295 729.295 1100.444 801.931 1147.7939999999999 868.511 1214.858 910.327 1281.4470000000001 951.847 1362.495 972.729 1440 960.438" fill="#113255"></path></g><defs><mask id="SvgjsMask1000"><rect width="1440" height="560" fill="#ffffff"></rect></mask></defs></svg>